<svg width="512" height="436" viewBox="0 0 512 436" fill="none" xmlns="http://www.w3.org/2000/svg">
<path d="M43 372.513V122.513H367V377.513H189C190 360.513 159 342.513 134 342.513C114 342.513 105 365.846 103 377.513L43 372.513Z" fill="#FF5765"/>
<path d="M476.158 248.452L462.899 195.417C466.524 194.647 469.244 191.431 469.244 187.578V179.027C469.244 160.461 454.139 145.357 435.574 145.357H375.182V127.72C375.182 118.584 367.75 111.152 358.614 111.152H246.32L314.56 83.8556C318.671 82.2116 320.67 77.5456 319.026 73.4346C317.382 69.3246 312.719 67.3236 308.605 68.9686L252.731 91.3176C269.757 80.3936 286.602 68.3706 293.015 59.9626C305.5 43.5936 302.338 20.1196 285.969 7.63458C269.6 -4.85142 246.126 -1.68842 233.641 14.6806C224.519 26.6426 212.483 60.2536 204.693 83.9386C196.903 60.2556 184.867 26.6426 175.745 14.6806C163.261 -1.68842 139.786 -4.84942 123.417 7.63458C107.048 20.1186 103.887 43.5926 116.371 59.9626C122.784 68.3716 139.628 80.3936 156.655 91.3176L100.781 68.9686C96.668 67.3216 92.004 69.3236 90.36 73.4346C88.715 77.5456 90.715 82.2116 94.826 83.8556L163.066 111.152H50.772C41.636 111.152 34.204 118.584 34.204 127.72V273.09C34.204 277.517 37.793 281.107 42.221 281.107C46.648 281.107 50.238 277.518 50.238 273.09V127.72C50.238 127.425 50.477 127.186 50.772 127.186H358.613C358.908 127.186 359.147 127.425 359.147 127.72V273.092C359.147 277.519 362.736 281.109 367.164 281.109C371.591 281.109 375.181 277.52 375.181 273.092V264.004H469.747C469.756 264.004 469.763 264.006 469.772 264.006C469.781 264.006 469.789 264.005 469.798 264.005C481.434 264.014 491.314 271.652 494.706 282.176H469.778C465.351 282.176 461.761 285.765 461.761 290.193V307.295C461.761 321.146 473.029 332.414 486.88 332.414H495.966V367.687H475.004C468.118 347.805 449.217 333.482 427.022 333.482C404.827 333.482 385.925 347.804 379.04 367.687H375.18V307.294C375.18 302.867 371.591 299.277 367.163 299.277C362.736 299.277 359.146 302.866 359.146 307.294V367.686H192.817C185.931 347.804 167.03 333.481 144.835 333.481C122.64 333.481 103.738 347.803 96.853 367.686H50.772C50.477 367.686 50.238 367.447 50.238 367.152V349.515H84.977C89.404 349.515 92.994 345.926 92.994 341.498C92.994 337.07 89.405 333.481 84.977 333.481H8.017C3.59 333.481 0 337.07 0 341.498C0 345.926 3.589 349.515 8.017 349.515H34.205V367.152C34.205 376.288 41.637 383.72 50.773 383.72H94.077C94.075 383.898 94.063 384.075 94.063 384.254C94.063 412.249 116.84 435.026 144.835 435.026C172.83 435.026 195.607 412.249 195.607 384.254C195.607 384.074 195.595 383.898 195.593 383.72H376.263C376.261 383.898 376.249 384.075 376.249 384.254C376.249 412.249 399.026 435.026 427.021 435.026C455.016 435.026 477.793 412.249 477.793 384.254C477.793 384.074 477.781 383.898 477.779 383.72H503.982C508.409 383.72 511.999 380.131 511.999 375.703V290.192C512 269.078 496.423 251.536 476.158 248.452ZM172.9 82.5726C141.277 62.9216 131.897 53.8806 129.12 50.2386C121.997 40.8996 123.801 27.5066 133.141 20.3836C136.991 17.4476 141.529 16.0286 146.034 16.0286C152.456 16.0286 158.81 18.9146 162.997 24.4046C170.752 34.5726 182.897 68.7956 190.915 93.4566C185.504 90.2706 179.284 86.5416 172.9 82.5726ZM218.473 93.4556C226.491 68.7956 238.636 34.5736 246.39 24.4036C253.513 15.0646 266.906 13.2616 276.245 20.3836C285.585 27.5066 287.388 40.8996 280.266 50.2386C277.489 53.8796 268.109 62.9216 236.488 82.5716C230.105 86.5396 223.885 90.2696 218.473 93.4556ZM375.182 161.389H435.574C445.299 161.389 453.211 169.301 453.211 179.026V179.56H375.182V161.389ZM375.182 247.97V195.594H446.417L459.511 247.97H375.182ZM144.835 418.993C125.68 418.993 110.096 403.409 110.096 384.254C110.096 365.099 125.68 349.515 144.835 349.515C163.99 349.515 179.574 365.099 179.574 384.254C179.574 403.409 163.99 418.993 144.835 418.993ZM427.023 418.993C407.868 418.993 392.284 403.409 392.284 384.254C392.284 365.099 407.868 349.515 427.023 349.515C446.178 349.515 461.762 365.099 461.762 384.254C461.762 403.409 446.178 418.993 427.023 418.993ZM495.967 316.379H486.881C481.871 316.379 477.795 312.303 477.795 307.293V298.207H495.966V316.379H495.967Z" fill="black"/>
<path d="M144.835 367.686C135.699 367.686 128.267 375.118 128.267 384.254C128.267 393.39 135.699 400.822 144.835 400.822C153.971 400.822 161.403 393.39 161.403 384.254C161.403 375.118 153.971 367.686 144.835 367.686Z" fill="black"/>
<path d="M427.023 367.686C417.887 367.686 410.455 375.118 410.455 384.254C410.455 393.39 417.887 400.822 427.023 400.822C436.159 400.822 443.591 393.39 443.591 384.254C443.591 375.118 436.159 367.686 427.023 367.686Z" fill="black"/>
<path d="M332.96 333.48H213.244C208.817 333.48 205.227 337.069 205.227 341.497C205.227 345.925 208.816 349.514 213.244 349.514H332.96C337.387 349.514 340.977 345.925 340.977 341.497C340.977 337.069 337.388 333.48 332.96 333.48Z" fill="black"/>
<path d="M127.733 299.277H25.119C20.692 299.277 17.102 302.866 17.102 307.294C17.102 311.722 20.691 315.311 25.119 315.311H127.733C132.16 315.311 135.75 311.722 135.75 307.294C135.75 302.866 132.16 299.277 127.733 299.277Z" fill="black"/>
<path d="M127.733 179.56H93.528C89.101 179.56 85.511 183.149 85.511 187.577V255.986C85.511 260.413 89.1 264.003 93.528 264.003C97.956 264.003 101.545 260.414 101.545 255.986V229.798H119.182C123.609 229.798 127.199 226.209 127.199 221.781C127.199 217.353 123.61 213.764 119.182 213.764H101.545V195.594H127.733C132.16 195.594 135.75 192.005 135.75 187.577C135.749 183.15 132.16 179.56 127.733 179.56Z" fill="black"/>
<path d="M190.822 233.557C198.845 228.302 204.159 219.24 204.159 208.955C204.159 192.746 190.973 179.56 174.764 179.56H153.386C148.959 179.56 145.369 183.149 145.369 187.577V255.986C145.369 260.413 148.958 264.003 153.386 264.003C157.814 264.003 161.403 260.414 161.403 255.986V238.349H174.749L189.471 260.432C191.016 262.749 193.557 264.003 196.148 264.003C197.677 264.003 199.221 263.567 200.587 262.655C204.272 260.2 205.267 255.222 202.81 251.539L190.822 233.557ZM174.764 222.316H161.403V195.594H174.764C182.132 195.594 188.125 201.587 188.125 208.955C188.125 216.323 182.132 222.316 174.764 222.316Z" fill="black"/>
<path d="M256 247.97H229.812V229.772C229.989 229.784 230.166 229.799 230.346 229.799H247.448C251.875 229.799 255.465 226.21 255.465 221.782C255.465 217.354 251.876 213.765 247.448 213.765H230.346C230.165 213.765 229.989 213.78 229.812 213.792V195.594H256C260.427 195.594 264.017 192.005 264.017 187.577C264.017 183.15 260.428 179.56 256 179.56H221.795C217.368 179.56 213.778 183.149 213.778 187.577V255.986C213.778 260.413 217.367 264.003 221.795 264.003H256C260.427 264.003 264.017 260.414 264.017 255.986C264.017 251.558 260.427 247.97 256 247.97Z" fill="black"/>
<path d="M315.858 247.97H289.67V229.799H298.756C303.183 229.799 306.773 226.21 306.773 221.782C306.773 217.354 303.184 213.765 298.756 213.765H289.67V195.594H315.858C320.285 195.594 323.875 192.005 323.875 187.577C323.875 183.15 320.286 179.56 315.858 179.56H281.653C277.226 179.56 273.636 183.149 273.636 187.577V255.986C273.636 260.413 277.225 264.003 281.653 264.003H315.858C320.285 264.003 323.875 260.414 323.875 255.986C323.875 251.558 320.285 247.97 315.858 247.97Z" fill="black"/>
</svg>
